<svg width="103" height="103" viewBox="0 0 103 103" fill="none" xmlns="http://www.w3.org/2000/svg">
<rect width="103" height="103" rx="8" fill="#296251"/>
<path d="M40.8066 48H39.1406V40.692L36.0466 48H34.5906L31.5246 40.72V48H29.8866V38.074H32.1266L35.3466 45.648L38.5246 38.074H40.8066V48ZM45.598 46.754C46.606 46.754 47.502 46.012 47.502 44.584C47.502 43.17 46.606 42.442 45.598 42.442C44.604 42.442 43.694 43.17 43.694 44.584C43.694 45.998 44.604 46.754 45.598 46.754ZM45.598 40.972C47.642 40.972 49.14 42.498 49.14 44.584C49.14 46.684 47.642 48.21 45.598 48.21C43.568 48.21 42.07 46.684 42.07 44.584C42.07 42.498 43.568 40.972 45.598 40.972ZM54.2794 41.14V42.792C54.0974 42.764 53.9154 42.75 53.7474 42.75C52.4874 42.75 51.9134 43.478 51.9134 44.752V48H50.2894V41.182H51.8714V42.274C52.1934 41.532 52.9494 41.098 53.8454 41.098C54.0414 41.098 54.2094 41.126 54.2794 41.14ZM56.2807 43.842H59.6267C59.5987 43.044 59.0667 42.33 57.9467 42.33C56.9247 42.33 56.3367 43.114 56.2807 43.842ZM59.8087 45.62L61.1807 46.054C60.8167 47.244 59.7387 48.21 58.1007 48.21C56.2527 48.21 54.6147 46.866 54.6147 44.556C54.6147 42.4 56.2107 40.972 57.9327 40.972C60.0327 40.972 61.2647 42.358 61.2647 44.514C61.2647 44.78 61.2367 45.004 61.2227 45.032H56.2387C56.2807 46.068 57.0927 46.81 58.1007 46.81C59.0807 46.81 59.5847 46.292 59.8087 45.62ZM67.0593 48H65.4493V41.182H67.0593V48ZM65.1973 38.788C65.1973 38.2 65.6733 37.724 66.2473 37.724C66.8353 37.724 67.3113 38.2 67.3113 38.788C67.3113 39.376 66.8353 39.838 66.2473 39.838C65.6733 39.838 65.1973 39.376 65.1973 38.788ZM70.3584 44.066V48H68.7344V41.182H70.3164V42.092C70.7644 41.308 71.5764 40.986 72.3324 40.986C73.9984 40.986 74.7964 42.19 74.7964 43.688V48H73.1724V43.968C73.1724 43.128 72.7944 42.456 71.7724 42.456C70.8484 42.456 70.3584 43.17 70.3584 44.066ZM23.6808 66H17.5488V56.074H23.6808V57.642H19.2288V60.274H23.2608V61.8H19.2288V64.432H23.6808V66ZM26.0241 62.57C26.0241 63.872 26.7521 64.74 27.8581 64.74C28.9221 64.74 29.6641 63.858 29.6641 62.556C29.6641 61.254 28.9361 60.442 27.8721 60.442C26.8081 60.442 26.0241 61.268 26.0241 62.57ZM31.2321 55.864V64.754C31.2321 65.37 31.2881 65.888 31.3021 66H29.7481C29.7201 65.846 29.6781 65.398 29.6781 65.118C29.3561 65.692 28.6421 66.168 27.6761 66.168C25.7161 66.168 24.4001 64.628 24.4001 62.57C24.4001 60.61 25.7301 59 27.6481 59C28.8381 59 29.4401 59.546 29.6501 59.98V55.864H31.2321ZM37.331 65.244C36.995 65.86 36.197 66.196 35.399 66.196C33.775 66.196 32.823 64.992 32.823 63.48V59.182H34.447V63.186C34.447 64.026 34.839 64.74 35.819 64.74C36.757 64.74 37.247 64.11 37.247 63.214V59.182H38.871V64.754C38.871 65.314 38.913 65.748 38.941 66H37.387C37.359 65.846 37.331 65.524 37.331 65.244ZM43.4801 60.47C42.4861 60.47 41.6041 61.212 41.6041 62.584C41.6041 63.956 42.4861 64.726 43.5081 64.726C44.5721 64.726 45.0621 63.984 45.2161 63.466L46.6441 63.984C46.3221 65.048 45.3001 66.21 43.5081 66.21C41.5061 66.21 39.9801 64.656 39.9801 62.584C39.9801 60.484 41.5061 58.972 43.4661 58.972C45.3001 58.972 46.3081 60.12 46.5881 61.212L45.1321 61.744C44.9781 61.142 44.5161 60.47 43.4801 60.47ZM47.2053 64.152C47.2053 62.934 48.1013 62.262 49.2633 62.094L51.0133 61.828C51.4053 61.772 51.5173 61.576 51.5173 61.338C51.5173 60.764 51.1253 60.302 50.2293 60.302C49.3753 60.302 48.8993 60.848 48.8293 61.534L47.3453 61.198C47.4713 60.022 48.5353 58.972 50.2153 58.972C52.3153 58.972 53.1133 60.162 53.1133 61.52V64.908C53.1133 65.524 53.1833 65.93 53.1973 66H51.6853C51.6713 65.958 51.6153 65.678 51.6153 65.132C51.2933 65.65 50.6213 66.21 49.5153 66.21C48.0873 66.21 47.2053 65.23 47.2053 64.152ZM49.8233 64.936C50.7333 64.936 51.5173 64.502 51.5173 63.172V62.864L49.7393 63.13C49.2353 63.214 48.8293 63.494 48.8293 64.054C48.8293 64.516 49.1793 64.936 49.8233 64.936ZM56.6871 57.096V59.182H58.1011V60.624H56.6871V63.788C56.6871 64.39 56.9531 64.642 57.5551 64.642C57.7791 64.642 58.0451 64.6 58.1151 64.586V65.93C58.0171 65.972 57.7091 66.084 57.1211 66.084C55.8611 66.084 55.0771 65.328 55.0771 64.054V60.624H53.8171V59.182H54.1671C54.8951 59.182 55.2171 58.72 55.2171 58.118V57.096H56.6871ZM60.9597 66H59.3497V59.182H60.9597V66ZM59.0977 56.788C59.0977 56.2 59.5737 55.724 60.1477 55.724C60.7357 55.724 61.2117 56.2 61.2117 56.788C61.2117 57.376 60.7357 57.838 60.1477 57.838C59.5737 57.838 59.0977 57.376 59.0977 56.788ZM65.6308 64.754C66.6388 64.754 67.5348 64.012 67.5348 62.584C67.5348 61.17 66.6388 60.442 65.6308 60.442C64.6368 60.442 63.7268 61.17 63.7268 62.584C63.7268 63.998 64.6368 64.754 65.6308 64.754ZM65.6308 58.972C67.6748 58.972 69.1728 60.498 69.1728 62.584C69.1728 64.684 67.6748 66.21 65.6308 66.21C63.6008 66.21 62.1028 64.684 62.1028 62.584C62.1028 60.498 63.6008 58.972 65.6308 58.972ZM71.9462 62.066V66H70.3222V59.182H71.9042V60.092C72.3522 59.308 73.1642 58.986 73.9202 58.986C75.5862 58.986 76.3842 60.19 76.3842 61.688V66H74.7602V61.968C74.7602 61.128 74.3822 60.456 73.3602 60.456C72.4362 60.456 71.9462 61.17 71.9462 62.066ZM77.5213 64.152C77.5213 62.934 78.4173 62.262 79.5793 62.094L81.3293 61.828C81.7213 61.772 81.8333 61.576 81.8333 61.338C81.8333 60.764 81.4413 60.302 80.5453 60.302C79.6913 60.302 79.2153 60.848 79.1453 61.534L77.6613 61.198C77.7873 60.022 78.8513 58.972 80.5313 58.972C82.6313 58.972 83.4293 60.162 83.4293 61.52V64.908C83.4293 65.524 83.4993 65.93 83.5133 66H82.0013C81.9873 65.958 81.9313 65.678 81.9313 65.132C81.6093 65.65 80.9373 66.21 79.8313 66.21C78.4033 66.21 77.5213 65.23 77.5213 64.152ZM80.1393 64.936C81.0493 64.936 81.8333 64.502 81.8333 63.172V62.864L80.0553 63.13C79.5513 63.214 79.1453 63.494 79.1453 64.054C79.1453 64.516 79.4953 64.936 80.1393 64.936ZM86.5965 66H84.9725V55.864H86.5965V66Z" fill="white"/>
</svg>
