<svg width="103" height="99" viewBox="0 0 103 99" fill="none" xmlns="http://www.w3.org/2000/svg">
<rect width="103" height="103" rx="8" fill="#6C6F7D"/>
<path d="M40.8066 48H39.1406V40.692L36.0466 48H34.5906L31.5246 40.72V48H29.8866V38.074H32.1266L35.3466 45.648L38.5246 38.074H40.8066V48ZM45.598 46.754C46.606 46.754 47.502 46.012 47.502 44.584C47.502 43.17 46.606 42.442 45.598 42.442C44.604 42.442 43.694 43.17 43.694 44.584C43.694 45.998 44.604 46.754 45.598 46.754ZM45.598 40.972C47.642 40.972 49.14 42.498 49.14 44.584C49.14 46.684 47.642 48.21 45.598 48.21C43.568 48.21 42.07 46.684 42.07 44.584C42.07 42.498 43.568 40.972 45.598 40.972ZM54.2794 41.14V42.792C54.0974 42.764 53.9154 42.75 53.7474 42.75C52.4874 42.75 51.9134 43.478 51.9134 44.752V48H50.2894V41.182H51.8714V42.274C52.1934 41.532 52.9494 41.098 53.8454 41.098C54.0414 41.098 54.2094 41.126 54.2794 41.14ZM56.2807 43.842H59.6267C59.5987 43.044 59.0667 42.33 57.9467 42.33C56.9247 42.33 56.3367 43.114 56.2807 43.842ZM59.8087 45.62L61.1807 46.054C60.8167 47.244 59.7387 48.21 58.1007 48.21C56.2527 48.21 54.6147 46.866 54.6147 44.556C54.6147 42.4 56.2107 40.972 57.9327 40.972C60.0327 40.972 61.2647 42.358 61.2647 44.514C61.2647 44.78 61.2367 45.004 61.2227 45.032H56.2387C56.2807 46.068 57.0927 46.81 58.1007 46.81C59.0807 46.81 59.5847 46.292 59.8087 45.62ZM67.0593 48H65.4493V41.182H67.0593V48ZM65.1973 38.788C65.1973 38.2 65.6733 37.724 66.2473 37.724C66.8353 37.724 67.3113 38.2 67.3113 38.788C67.3113 39.376 66.8353 39.838 66.2473 39.838C65.6733 39.838 65.1973 39.376 65.1973 38.788ZM70.3584 44.066V48H68.7344V41.182H70.3164V42.092C70.7644 41.308 71.5764 40.986 72.3324 40.986C73.9984 40.986 74.7964 42.19 74.7964 43.688V48H73.1724V43.968C73.1724 43.128 72.7944 42.456 71.7724 42.456C70.8484 42.456 70.3584 43.17 70.3584 44.066ZM31.4566 66.21C28.7826 66.21 26.4446 64.278 26.4446 61.044C26.4446 57.81 28.8666 55.864 31.4426 55.864C33.9626 55.864 35.4606 57.348 35.9086 59.084L34.3266 59.616C34.0326 58.412 33.1086 57.446 31.4426 57.446C29.8046 57.446 28.1666 58.636 28.1666 61.044C28.1666 63.368 29.7626 64.6 31.4566 64.6C33.1226 64.6 34.0746 63.536 34.4106 62.416L35.9506 62.92C35.5026 64.6 33.9906 66.21 31.4566 66.21ZM39.8459 64.754C40.8539 64.754 41.7499 64.012 41.7499 62.584C41.7499 61.17 40.8539 60.442 39.8459 60.442C38.8519 60.442 37.9419 61.17 37.9419 62.584C37.9419 63.998 38.8519 64.754 39.8459 64.754ZM39.8459 58.972C41.8899 58.972 43.3879 60.498 43.3879 62.584C43.3879 64.684 41.8899 66.21 39.8459 66.21C37.8159 66.21 36.3179 64.684 36.3179 62.584C36.3179 60.498 37.8159 58.972 39.8459 58.972ZM46.1473 66H44.5373V59.182H46.0913V60.05C46.4833 59.35 47.3373 58.986 48.1073 58.986C49.0033 58.986 49.7873 59.392 50.1513 60.19C50.6833 59.294 51.4813 58.986 52.3633 58.986C53.5953 58.986 54.7713 59.77 54.7713 61.576V66H53.2033V61.842C53.2033 61.044 52.7973 60.442 51.8873 60.442C51.0333 60.442 50.4733 61.114 50.4733 61.954V66H48.8773V61.842C48.8773 61.058 48.4853 60.442 47.5613 60.442C46.6933 60.442 46.1473 61.086 46.1473 61.954V66ZM57.474 61.842H60.82C60.792 61.044 60.26 60.33 59.14 60.33C58.118 60.33 57.53 61.114 57.474 61.842ZM61.002 63.62L62.374 64.054C62.01 65.244 60.932 66.21 59.294 66.21C57.446 66.21 55.808 64.866 55.808 62.556C55.808 60.4 57.404 58.972 59.126 58.972C61.226 58.972 62.458 60.358 62.458 62.514C62.458 62.78 62.43 63.004 62.416 63.032H57.432C57.474 64.068 58.286 64.81 59.294 64.81C60.274 64.81 60.778 64.292 61.002 63.62ZM64.6819 62.57C64.6819 63.872 65.4099 64.74 66.5159 64.74C67.5799 64.74 68.3219 63.858 68.3219 62.556C68.3219 61.254 67.5939 60.442 66.5299 60.442C65.4659 60.442 64.6819 61.268 64.6819 62.57ZM69.8899 55.864V64.754C69.8899 65.37 69.9459 65.888 69.9599 66H68.4059C68.3779 65.846 68.3359 65.398 68.3359 65.118C68.0139 65.692 67.2999 66.168 66.3339 66.168C64.3739 66.168 63.0579 64.628 63.0579 62.57C63.0579 60.61 64.3879 59 66.3059 59C67.4959 59 68.0979 59.546 68.3079 59.98V55.864H69.8899ZM73.6638 68.758H71.9278L73.5658 65.188L70.6538 59.182H72.4878L74.4478 63.494L76.2818 59.182H78.0038L73.6638 68.758Z" fill="white"/>
</svg>
