<svg width="103" height="103" viewBox="0 0 103 103" fill="none" xmlns="http://www.w3.org/2000/svg">
<rect width="103" height="103" rx="8" fill="#764C36"/>
<path d="M40.3066 39H38.6406V31.692L35.5466 39H34.0906L31.0246 31.72V39H29.3866V29.074H31.6266L34.8466 36.648L38.0246 29.074H40.3066V39ZM45.098 37.754C46.106 37.754 47.002 37.012 47.002 35.584C47.002 34.17 46.106 33.442 45.098 33.442C44.104 33.442 43.194 34.17 43.194 35.584C43.194 36.998 44.104 37.754 45.098 37.754ZM45.098 31.972C47.142 31.972 48.64 33.498 48.64 35.584C48.64 37.684 47.142 39.21 45.098 39.21C43.068 39.21 41.57 37.684 41.57 35.584C41.57 33.498 43.068 31.972 45.098 31.972ZM53.7794 32.14V33.792C53.5974 33.764 53.4154 33.75 53.2474 33.75C51.9874 33.75 51.4134 34.478 51.4134 35.752V39H49.7894V32.182H51.3714V33.274C51.6934 32.532 52.4494 32.098 53.3454 32.098C53.5414 32.098 53.7094 32.126 53.7794 32.14ZM55.7807 34.842H59.1267C59.0987 34.044 58.5667 33.33 57.4467 33.33C56.4247 33.33 55.8367 34.114 55.7807 34.842ZM59.3087 36.62L60.6807 37.054C60.3167 38.244 59.2387 39.21 57.6007 39.21C55.7527 39.21 54.1147 37.866 54.1147 35.556C54.1147 33.4 55.7107 31.972 57.4327 31.972C59.5327 31.972 60.7647 33.358 60.7647 35.514C60.7647 35.78 60.7367 36.004 60.7227 36.032H55.7387C55.7807 37.068 56.5927 37.81 57.6007 37.81C58.5807 37.81 59.0847 37.292 59.3087 36.62ZM66.5593 39H64.9493V32.182H66.5593V39ZM64.6973 29.788C64.6973 29.2 65.1733 28.724 65.7473 28.724C66.3353 28.724 66.8113 29.2 66.8113 29.788C66.8113 30.376 66.3353 30.838 65.7473 30.838C65.1733 30.838 64.6973 30.376 64.6973 29.788ZM69.8584 35.066V39H68.2344V32.182H69.8164V33.092C70.2644 32.308 71.0764 31.986 71.8324 31.986C73.4984 31.986 74.2964 33.19 74.2964 34.688V39H72.6724V34.968C72.6724 34.128 72.2944 33.456 71.2724 33.456C70.3484 33.456 69.8584 34.17 69.8584 35.066ZM28.7336 51.638H30.4836C31.5476 51.638 32.1916 51.05 32.1916 50.112C32.1916 49.16 31.5476 48.558 30.4836 48.558H28.7336V51.638ZM30.7356 53.122H28.7336V57H27.0536V47.074H30.7356C32.6396 47.074 33.8996 48.362 33.8996 50.098C33.8996 51.848 32.6396 53.122 30.7356 53.122ZM35.5573 52.842H38.9033C38.8753 52.044 38.3433 51.33 37.2233 51.33C36.2013 51.33 35.6133 52.114 35.5573 52.842ZM39.0853 54.62L40.4573 55.054C40.0933 56.244 39.0153 57.21 37.3773 57.21C35.5293 57.21 33.8913 55.866 33.8913 53.556C33.8913 51.4 35.4873 49.972 37.2093 49.972C39.3093 49.972 40.5413 51.358 40.5413 53.514C40.5413 53.78 40.5133 54.004 40.4993 54.032H35.5153C35.5573 55.068 36.3693 55.81 37.3773 55.81C38.3573 55.81 38.8613 55.292 39.0853 54.62ZM45.6632 50.14V51.792C45.4812 51.764 45.2992 51.75 45.1312 51.75C43.8712 51.75 43.2972 52.478 43.2972 53.752V57H41.6732V50.182H43.2552V51.274C43.5772 50.532 44.3332 50.098 45.2292 50.098C45.4252 50.098 45.5932 50.126 45.6632 50.14ZM46.0106 55.152L47.4246 54.76C47.4806 55.376 47.9426 55.922 48.8106 55.922C49.4826 55.922 49.8326 55.558 49.8326 55.138C49.8326 54.774 49.5806 54.494 49.0346 54.382L48.0266 54.158C46.8226 53.892 46.1926 53.108 46.1926 52.17C46.1926 50.98 47.2846 49.972 48.6986 49.972C50.6026 49.972 51.2186 51.204 51.3306 51.876L49.9586 52.268C49.9026 51.876 49.6086 51.246 48.6986 51.246C48.1246 51.246 47.7186 51.61 47.7186 52.03C47.7186 52.394 47.9846 52.66 48.4046 52.744L49.4406 52.954C50.7286 53.234 51.4006 54.018 51.4006 55.026C51.4006 56.062 50.5606 57.21 48.8246 57.21C46.8506 57.21 46.0946 55.922 46.0106 55.152ZM55.546 55.754C56.554 55.754 57.45 55.012 57.45 53.584C57.45 52.17 56.554 51.442 55.546 51.442C54.552 51.442 53.642 52.17 53.642 53.584C53.642 54.998 54.552 55.754 55.546 55.754ZM55.546 49.972C57.59 49.972 59.088 51.498 59.088 53.584C59.088 55.684 57.59 57.21 55.546 57.21C53.516 57.21 52.018 55.684 52.018 53.584C52.018 51.498 53.516 49.972 55.546 49.972ZM61.8614 53.066V57H60.2374V50.182H61.8194V51.092C62.2674 50.308 63.0794 49.986 63.8354 49.986C65.5014 49.986 66.2994 51.19 66.2994 52.688V57H64.6754V52.968C64.6754 52.128 64.2974 51.456 63.2754 51.456C62.3514 51.456 61.8614 52.17 61.8614 53.066ZM67.4365 55.152C67.4365 53.934 68.3325 53.262 69.4945 53.094L71.2445 52.828C71.6365 52.772 71.7485 52.576 71.7485 52.338C71.7485 51.764 71.3565 51.302 70.4605 51.302C69.6065 51.302 69.1305 51.848 69.0605 52.534L67.5765 52.198C67.7025 51.022 68.7665 49.972 70.4465 49.972C72.5465 49.972 73.3445 51.162 73.3445 52.52V55.908C73.3445 56.524 73.4145 56.93 73.4285 57H71.9165C71.9025 56.958 71.8465 56.678 71.8465 56.132C71.5245 56.65 70.8525 57.21 69.7465 57.21C68.3185 57.21 67.4365 56.23 67.4365 55.152ZM70.0545 55.936C70.9645 55.936 71.7485 55.502 71.7485 54.172V53.864L69.9705 54.13C69.4665 54.214 69.0605 54.494 69.0605 55.054C69.0605 55.516 69.4105 55.936 70.0545 55.936ZM76.5117 57H74.8877V46.864H76.5117V57ZM31.8594 73.152L33.2734 72.76C33.3294 73.376 33.7914 73.922 34.6594 73.922C35.3314 73.922 35.6814 73.558 35.6814 73.138C35.6814 72.774 35.4294 72.494 34.8834 72.382L33.8754 72.158C32.6714 71.892 32.0414 71.108 32.0414 70.17C32.0414 68.98 33.1334 67.972 34.5474 67.972C36.4514 67.972 37.0674 69.204 37.1794 69.876L35.8074 70.268C35.7514 69.876 35.4574 69.246 34.5474 69.246C33.9734 69.246 33.5674 69.61 33.5674 70.03C33.5674 70.394 33.8334 70.66 34.2534 70.744L35.2894 70.954C36.5774 71.234 37.2494 72.018 37.2494 73.026C37.2494 74.062 36.4094 75.21 34.6734 75.21C32.6994 75.21 31.9434 73.922 31.8594 73.152ZM40.4978 66.096V68.182H41.9118V69.624H40.4978V72.788C40.4978 73.39 40.7638 73.642 41.3658 73.642C41.5898 73.642 41.8558 73.6 41.9258 73.586V74.93C41.8278 74.972 41.5198 75.084 40.9318 75.084C39.6718 75.084 38.8878 74.328 38.8878 73.054V69.624H37.6278V68.182H37.9778C38.7058 68.182 39.0278 67.72 39.0278 67.118V66.096H40.4978ZM46.0881 73.754C47.0961 73.754 47.9921 73.012 47.9921 71.584C47.9921 70.17 47.0961 69.442 46.0881 69.442C45.0941 69.442 44.1841 70.17 44.1841 71.584C44.1841 72.998 45.0941 73.754 46.0881 73.754ZM46.0881 67.972C48.1321 67.972 49.6301 69.498 49.6301 71.584C49.6301 73.684 48.1321 75.21 46.0881 75.21C44.0581 75.21 42.5601 73.684 42.5601 71.584C42.5601 69.498 44.0581 67.972 46.0881 67.972ZM54.7695 68.14V69.792C54.5875 69.764 54.4055 69.75 54.2375 69.75C52.9775 69.75 52.4035 70.478 52.4035 71.752V75H50.7795V68.182H52.3615V69.274C52.6835 68.532 53.4395 68.098 54.3355 68.098C54.5315 68.098 54.6995 68.126 54.7695 68.14ZM57.3152 75H55.7052V68.182H57.3152V75ZM55.4532 65.788C55.4532 65.2 55.9292 64.724 56.5032 64.724C57.0912 64.724 57.5672 65.2 57.5672 65.788C57.5672 66.376 57.0912 66.838 56.5032 66.838C55.9292 66.838 55.4532 66.376 55.4532 65.788ZM60.1243 70.842H63.4703C63.4423 70.044 62.9103 69.33 61.7903 69.33C60.7683 69.33 60.1803 70.114 60.1243 70.842ZM63.6523 72.62L65.0243 73.054C64.6603 74.244 63.5823 75.21 61.9443 75.21C60.0963 75.21 58.4583 73.866 58.4583 71.556C58.4583 69.4 60.0543 67.972 61.7763 67.972C63.8763 67.972 65.1083 69.358 65.1083 71.514C65.1083 71.78 65.0803 72.004 65.0663 72.032H60.0823C60.1243 73.068 60.9363 73.81 61.9443 73.81C62.9243 73.81 63.4283 73.292 63.6523 72.62ZM65.6382 73.152L67.0522 72.76C67.1082 73.376 67.5702 73.922 68.4382 73.922C69.1102 73.922 69.4602 73.558 69.4602 73.138C69.4602 72.774 69.2082 72.494 68.6622 72.382L67.6542 72.158C66.4502 71.892 65.8202 71.108 65.8202 70.17C65.8202 68.98 66.9122 67.972 68.3262 67.972C70.2302 67.972 70.8462 69.204 70.9582 69.876L69.5862 70.268C69.5302 69.876 69.2362 69.246 68.3262 69.246C67.7522 69.246 67.3462 69.61 67.3462 70.03C67.3462 70.394 67.6122 70.66 68.0322 70.744L69.0682 70.954C70.3562 71.234 71.0282 72.018 71.0282 73.026C71.0282 74.062 70.1882 75.21 68.4522 75.21C66.4782 75.21 65.7222 73.922 65.6382 73.152Z" fill="white"/>
</svg>
