<svg width="103" height="103" viewBox="0 0 103 103" fill="none" xmlns="http://www.w3.org/2000/svg">
<rect width="103" height="103" rx="8" fill="#9F6120"/>
<path d="M40.3066 47H38.6406V39.692L35.5466 47H34.0906L31.0246 39.72V47H29.3866V37.074H31.6266L34.8466 44.648L38.0246 37.074H40.3066V47ZM45.098 45.754C46.106 45.754 47.002 45.012 47.002 43.584C47.002 42.17 46.106 41.442 45.098 41.442C44.104 41.442 43.194 42.17 43.194 43.584C43.194 44.998 44.104 45.754 45.098 45.754ZM45.098 39.972C47.142 39.972 48.64 41.498 48.64 43.584C48.64 45.684 47.142 47.21 45.098 47.21C43.068 47.21 41.57 45.684 41.57 43.584C41.57 41.498 43.068 39.972 45.098 39.972ZM53.7794 40.14V41.792C53.5974 41.764 53.4154 41.75 53.2474 41.75C51.9874 41.75 51.4134 42.478 51.4134 43.752V47H49.7894V40.182H51.3714V41.274C51.6934 40.532 52.4494 40.098 53.3454 40.098C53.5414 40.098 53.7094 40.126 53.7794 40.14ZM55.7807 42.842H59.1267C59.0987 42.044 58.5667 41.33 57.4467 41.33C56.4247 41.33 55.8367 42.114 55.7807 42.842ZM59.3087 44.62L60.6807 45.054C60.3167 46.244 59.2387 47.21 57.6007 47.21C55.7527 47.21 54.1147 45.866 54.1147 43.556C54.1147 41.4 55.7107 39.972 57.4327 39.972C59.5327 39.972 60.7647 41.358 60.7647 43.514C60.7647 43.78 60.7367 44.004 60.7227 44.032H55.7387C55.7807 45.068 56.5927 45.81 57.6007 45.81C58.5807 45.81 59.0847 45.292 59.3087 44.62ZM66.5593 47H64.9493V40.182H66.5593V47ZM64.6973 37.788C64.6973 37.2 65.1733 36.724 65.7473 36.724C66.3353 36.724 66.8113 37.2 66.8113 37.788C66.8113 38.376 66.3353 38.838 65.7473 38.838C65.1733 38.838 64.6973 38.376 64.6973 37.788ZM69.8584 43.066V47H68.2344V40.182H69.8164V41.092C70.2644 40.308 71.0764 39.986 71.8324 39.986C73.4984 39.986 74.2964 41.19 74.2964 42.688V47H72.6724V42.968C72.6724 42.128 72.2944 41.456 71.2724 41.456C70.3484 41.456 69.8584 42.17 69.8584 43.066ZM36.3773 57.398L34.8653 57.874C34.7673 57.258 34.2493 56.348 32.9193 56.348C31.9113 56.348 31.2113 57.02 31.2113 57.776C31.2113 58.406 31.6033 58.882 32.3733 59.05L33.8013 59.344C35.5513 59.694 36.4893 60.8 36.4893 62.2C36.4893 63.74 35.2433 65.21 32.9753 65.21C30.4553 65.21 29.2933 63.586 29.1393 62.158L30.7073 61.71C30.8053 62.746 31.5473 63.698 32.9753 63.698C34.1653 63.698 34.7813 63.096 34.7813 62.326C34.7813 61.682 34.3053 61.164 33.4513 60.982L32.0513 60.688C30.5393 60.38 29.5313 59.386 29.5313 57.902C29.5313 56.236 31.0573 54.864 32.9053 54.864C35.2433 54.864 36.1533 56.292 36.3773 57.398ZM40.5745 63.754C41.5825 63.754 42.4785 63.012 42.4785 61.584C42.4785 60.17 41.5825 59.442 40.5745 59.442C39.5805 59.442 38.6705 60.17 38.6705 61.584C38.6705 62.998 39.5805 63.754 40.5745 63.754ZM40.5745 57.972C42.6185 57.972 44.1165 59.498 44.1165 61.584C44.1165 63.684 42.6185 65.21 40.5745 65.21C38.5445 65.21 37.0465 63.684 37.0465 61.584C37.0465 59.498 38.5445 57.972 40.5745 57.972ZM48.2339 59.47C47.2399 59.47 46.3579 60.212 46.3579 61.584C46.3579 62.956 47.2399 63.726 48.2619 63.726C49.3259 63.726 49.8159 62.984 49.9699 62.466L51.3979 62.984C51.0759 64.048 50.0539 65.21 48.2619 65.21C46.2599 65.21 44.7339 63.656 44.7339 61.584C44.7339 59.484 46.2599 57.972 48.2199 57.972C50.0539 57.972 51.0619 59.12 51.3419 60.212L49.8859 60.744C49.7319 60.142 49.2699 59.47 48.2339 59.47ZM54.0301 65H52.4201V58.182H54.0301V65ZM52.1681 55.788C52.1681 55.2 52.6441 54.724 53.2181 54.724C53.8061 54.724 54.2821 55.2 54.2821 55.788C54.2821 56.376 53.8061 56.838 53.2181 56.838C52.6441 56.838 52.1681 56.376 52.1681 55.788ZM56.8392 60.842H60.1852C60.1572 60.044 59.6252 59.33 58.5052 59.33C57.4832 59.33 56.8952 60.114 56.8392 60.842ZM60.3672 62.62L61.7392 63.054C61.3752 64.244 60.2972 65.21 58.6592 65.21C56.8112 65.21 55.1732 63.866 55.1732 61.556C55.1732 59.4 56.7692 57.972 58.4912 57.972C60.5912 57.972 61.8232 59.358 61.8232 61.514C61.8232 61.78 61.7952 62.004 61.7812 62.032H56.7972C56.8392 63.068 57.6512 63.81 58.6592 63.81C59.6392 63.81 60.1432 63.292 60.3672 62.62ZM65.0131 56.096V58.182H66.4271V59.624H65.0131V62.788C65.0131 63.39 65.2791 63.642 65.8811 63.642C66.1051 63.642 66.3711 63.6 66.4411 63.586V64.93C66.3431 64.972 66.0351 65.084 65.4471 65.084C64.1871 65.084 63.4031 64.328 63.4031 63.054V59.624H62.1431V58.182H62.4931C63.2211 58.182 63.5431 57.72 63.5431 57.118V56.096H65.0131ZM69.8571 67.758H68.1211L69.7591 64.188L66.8471 58.182H68.6811L70.6411 62.494L72.4751 58.182H74.1971L69.8571 67.758Z" fill="white"/>
</svg>
