<svg width="24" height="24" viewBox="0 0 24 24" fill="none" xmlns="http://www.w3.org/2000/svg">
<path d="M11 7C11 6.44775 11.4478 6 12 6C12.5522 6 13 6.44775 13 7V11H17C17.5522 11 18 11.4478 18 12C18 12.5522 17.5522 13 17 13H13V17C13 17.5522 12.5522 18 12 18C11.6335 18 11.313 17.8027 11.1389 17.5083C11.0508 17.3594 11 17.1855 11 17V13H7C6.44775 13 6 12.5522 6 12C6 11.7549 6.08813 11.5303 6.23462 11.3564C6.41797 11.1387 6.69287 11 7 11H11V7Z" fill="white"/>
<path fill-rule="evenodd" clip-rule="evenodd" d="M23 12C23 18.0752 18.0752 23 12 23C5.9248 23 1 18.0752 1 12C1 5.9248 5.9248 1 12 1C18.0752 1 23 5.9248 23 12ZM21 12C21 16.9707 16.9705 21 12 21C7.02954 21 3 16.9707 3 12C3 7.0293 7.02954 3 12 3C16.9705 3 21 7.0293 21 12Z" fill="white"/>
</svg>
