<svg width="24" height="25" viewBox="0 0 24 25" fill="none" xmlns="http://www.w3.org/2000/svg">
<path d="M2.40771 6.0542C2.40771 5.0249 3.18555 4.17676 4.18555 4.06641V4.0542H7.40771V6.0542H4.40771V14.1792H7.40771V16.1792H4.40771V16.1934C3.30322 16.1934 2.40771 15.2979 2.40771 14.1934V6.0542Z" fill="white"/>
<path d="M7.40771 18.9458V20.9458H4.40771V18.9458H7.40771Z" fill="white"/>
<path d="M15.481 10.6909C16.3096 10.6909 16.981 10.0195 16.981 9.19092C16.981 8.3623 16.3096 7.69092 15.481 7.69092C14.6523 7.69092 13.981 8.3623 13.981 9.19092C13.981 10.0195 14.6523 10.6909 15.481 10.6909Z" fill="white"/>
<path d="M17.981 15.1792C17.981 16.5601 16.8618 17.6792 15.481 17.6792C14.1001 17.6792 12.981 16.5601 12.981 15.1792C12.981 13.7983 14.1001 12.6792 15.481 12.6792C16.8618 12.6792 17.981 13.7983 17.981 15.1792Z" fill="white"/>
<path fill-rule="evenodd" clip-rule="evenodd" d="M11.3696 4.0542C10.2651 4.0542 9.36963 4.94971 9.36963 6.0542V18.9458C9.36963 20.0503 10.2651 20.9458 11.3696 20.9458H19.5923C20.6968 20.9458 21.5923 20.0503 21.5923 18.9458V6.0542C21.5923 4.94971 20.6968 4.0542 19.5923 4.0542H11.3696ZM11.3696 6.0542H19.5923V18.9458H11.3696V6.0542Z" fill="white"/>
</svg>
