<svg width="30" height="30" viewBox="0 0 30 30" fill="none" xmlns="http://www.w3.org/2000/svg">
<path fill-rule="evenodd" clip-rule="evenodd" d="M5 8.71183C5 6.66198 6.67908 5 8.75 5H21.25C23.3209 5 25 6.66198 25 8.71183C25 10.7617 23.3209 12.4237 21.25 12.4237H8.75C6.67908 12.4237 5 10.7617 5 8.71183ZM7.80151 8.71183C7.80151 8.02855 8.36121 7.47455 9.05151 7.47455H20.9485C21.6388 7.47455 22.1985 8.02855 22.1985 8.71183C22.1985 9.39511 21.6388 9.9491 20.9485 9.9491H9.05151C8.36121 9.9491 7.80151 9.39511 7.80151 8.71183Z" fill="white"/>
<path d="M5 16.5662H25V19.0408H5V16.5662Z" fill="white"/>
<path d="M5 22.5254H25V25H5V22.5254Z" fill="white"/>
</svg>
