<svg width="25" height="24" viewBox="0 0 25 24" fill="none" xmlns="http://www.w3.org/2000/svg">
<mask id="path-1-inside-1_32_819" fill="white">
<path fill-rule="evenodd" clip-rule="evenodd" d="M22.3727 0C22.925 0 23.3727 0.447716 23.3727 1V23C23.3727 23.5523 22.925 24 22.3727 24H20.235C19.6827 24 19.235 23.5523 19.235 23V13.7078L2.54501 23.5551C2.2117 23.7517 1.79093 23.5115 1.79093 23.1245L1.79093 0.866501C1.79093 0.481508 2.20778 0.240959 2.54111 0.433592L19.235 10.081V1C19.235 0.447715 19.6827 0 20.235 0H22.3727Z"/>
</mask>
<path fill-rule="evenodd" clip-rule="evenodd" d="M22.3727 0C22.925 0 23.3727 0.447716 23.3727 1V23C23.3727 23.5523 22.925 24 22.3727 24H20.235C19.6827 24 19.235 23.5523 19.235 23V13.7078L2.54501 23.5551C2.2117 23.7517 1.79093 23.5115 1.79093 23.1245L1.79093 0.866501C1.79093 0.481508 2.20778 0.240959 2.54111 0.433592L19.235 10.081V1C19.235 0.447715 19.6827 0 20.235 0H22.3727Z" fill="white"/>
<path d="M19.235 13.7078L18.7268 12.8465L20.235 11.9567V13.7078H19.235ZM2.54501 23.5551L2.03685 22.6938H2.03685L2.54501 23.5551ZM1.79093 23.1245H2.79093H1.79093ZM1.79093 0.866501L0.790932 0.866501V0.866501H1.79093ZM2.54111 0.433592L2.04075 1.29941V1.29941L2.54111 0.433592ZM19.235 10.081H20.235V11.8138L18.7346 10.9468L19.235 10.081ZM22.3727 1V1V-1C23.4773 -1 24.3727 -0.104568 24.3727 1H22.3727ZM22.3727 23V1H24.3727V23H22.3727ZM22.3727 23H22.3727H24.3727C24.3727 24.1046 23.4773 25 22.3727 25V23ZM20.235 23H22.3727V25H20.235V23ZM20.235 23V25C19.1304 25 18.235 24.1046 18.235 23H20.235ZM20.235 13.7078V23H18.235V13.7078H20.235ZM2.03685 22.6938L18.7268 12.8465L19.7431 14.569L3.05317 24.4163L2.03685 22.6938ZM2.79093 23.1245C2.79093 22.7375 2.37017 22.4972 2.03685 22.6938L3.05317 24.4163C2.05323 25.0063 0.790934 24.2855 0.790934 23.1245H2.79093ZM2.79093 0.866501L2.79093 23.1245H0.790934L0.790932 0.866501L2.79093 0.866501ZM2.04075 1.29941C2.37408 1.49204 2.79093 1.2515 2.79093 0.866501H0.790932C0.790932 -0.288479 2.04147 -1.01013 3.04147 -0.432227L2.04075 1.29941ZM18.7346 10.9468L2.04075 1.29941L3.04147 -0.432228L19.7353 9.21513L18.7346 10.9468ZM20.235 1V10.081H18.235V1H20.235ZM20.235 1H18.235C18.235 -0.104569 19.1304 -1 20.235 -1V1ZM22.3727 1H20.235V-1H22.3727V1Z" fill="white" mask="url(#path-1-inside-1_32_819)"/>
</svg>
