<svg width="22" height="24" viewBox="0 0 22 24" fill="none" xmlns="http://www.w3.org/2000/svg">
<mask id="path-1-inside-1_132_1557" fill="white">
<path fill-rule="evenodd" clip-rule="evenodd" d="M1 0C0.447715 0 0 0.447716 0 1V23C0 23.5523 0.447715 24 1 24H3.1377C3.68999 24 4.1377 23.5523 4.1377 23V13.7078L20.8277 23.5551C21.161 23.7517 21.5817 23.5115 21.5817 23.1245L21.5817 0.866501C21.5817 0.481508 21.1649 0.240959 20.8316 0.433592L4.1377 10.081V1C4.1377 0.447715 3.68999 0 3.1377 0H1Z"/>
</mask>
<path fill-rule="evenodd" clip-rule="evenodd" d="M1 0C0.447715 0 0 0.447716 0 1V23C0 23.5523 0.447715 24 1 24H3.1377C3.68999 24 4.1377 23.5523 4.1377 23V13.7078L20.8277 23.5551C21.161 23.7517 21.5817 23.5115 21.5817 23.1245L21.5817 0.866501C21.5817 0.481508 21.1649 0.240959 20.8316 0.433592L4.1377 10.081V1C4.1377 0.447715 3.68999 0 3.1377 0H1Z" fill="white"/>
<path d="M4.1377 13.7078L4.64586 12.8465L3.1377 11.9567V13.7078H4.1377ZM20.8277 23.5551L21.3358 22.6938H21.3358L20.8277 23.5551ZM21.5817 23.1245H20.5817H21.5817ZM21.5817 0.866501L22.5817 0.866501V0.866501H21.5817ZM20.8316 0.433592L21.3319 1.29941V1.29941L20.8316 0.433592ZM4.1377 10.081H3.1377V11.8138L4.63806 10.9468L4.1377 10.081ZM1 1V1V-1C-0.10457 -1 -1 -0.104568 -1 1H1ZM1 23V1H-1V23H1ZM1 23H1H-1C-1 24.1046 -0.10457 25 1 25V23ZM3.1377 23H1V25H3.1377V23ZM3.1377 23V25C4.24227 25 5.1377 24.1046 5.1377 23H3.1377ZM3.1377 13.7078V23H5.1377V13.7078H3.1377ZM21.3358 22.6938L4.64586 12.8465L3.62955 14.569L20.3195 24.4163L21.3358 22.6938ZM20.5817 23.1245C20.5817 22.7375 21.0025 22.4972 21.3358 22.6938L20.3195 24.4163C21.3194 25.0063 22.5817 24.2855 22.5817 23.1245H20.5817ZM20.5817 0.866501L20.5817 23.1245H22.5817L22.5817 0.866501L20.5817 0.866501ZM21.3319 1.29941C20.9986 1.49204 20.5817 1.2515 20.5817 0.866501H22.5817C22.5817 -0.288479 21.3312 -1.01013 20.3312 -0.432227L21.3319 1.29941ZM4.63806 10.9468L21.3319 1.29941L20.3312 -0.432228L3.63735 9.21513L4.63806 10.9468ZM3.1377 1V10.081H5.1377V1H3.1377ZM3.1377 1H5.1377C5.1377 -0.104569 4.24227 -1 3.1377 -1V1ZM1 1H3.1377V-1H1V1Z" fill="white" mask="url(#path-1-inside-1_132_1557)"/>
</svg>
