<svg width="24" height="25" viewBox="0 0 24 25" fill="none" xmlns="http://www.w3.org/2000/svg">
<path d="M2.14242 11.5826C1.53752 11.5263 0.995746 11.9718 1.00015 12.5793C1.01377 14.4583 1.50877 16.3092 2.44621 17.9518C3.56603 19.914 5.26287 21.4837 7.3061 22.4478C9.34933 23.4118 11.6398 23.7233 13.8663 23.34C16.0928 22.9566 18.1472 21.897 19.7504 20.3052C21.3536 18.7134 22.4277 16.6665 22.8269 14.4428C23.226 12.2191 22.9307 9.92643 21.9812 7.87641C21.0317 5.82639 19.474 4.11846 17.5198 2.98474C15.8839 2.03567 14.0366 1.52755 12.1577 1.50059C11.5503 1.49188 11.101 2.03048 11.1529 2.63576C11.2049 3.24105 11.739 3.68237 12.3461 3.70627C13.7731 3.76246 15.171 4.16549 16.4158 4.88769C17.9792 5.79466 19.2253 7.16101 19.9849 8.80102C20.7446 10.441 20.9808 12.2752 20.6615 14.0541C20.3422 15.8331 19.4828 17.4706 18.2003 18.744C16.9178 20.0175 15.2742 20.8652 13.493 21.1719C11.7118 21.4785 9.87943 21.2293 8.24485 20.4581C6.61027 19.6869 5.2528 18.4311 4.35694 16.8613C3.6436 15.6114 3.25049 14.2107 3.20444 12.7833C3.18485 12.1761 2.74732 11.6388 2.14242 11.5826Z" fill="white"/>
<path d="M8.23669 3.86458C8.23669 4.52602 7.70049 5.06221 7.03905 5.06221C6.37762 5.06221 5.84142 4.52602 5.84142 3.86458C5.84142 3.20315 6.37762 2.66695 7.03905 2.66695C7.70049 2.66695 8.23669 3.20315 8.23669 3.86458Z" fill="white"/>
<path d="M4.62145 7.55892C4.62145 8.22035 4.08525 8.75655 3.42382 8.75655C2.76239 8.75655 2.22619 8.22035 2.22619 7.55892C2.22619 6.89748 2.76239 6.36129 3.42382 6.36129C4.08525 6.36129 4.62145 6.89748 4.62145 7.55892Z" fill="white"/>
<path d="M12.1354 5.5483C11.5951 5.5483 11.1569 5.98629 11.1569 6.52681V13.5717H16.1136C16.6754 13.5717 17.131 13.1167 17.131 12.5546C17.131 11.9926 16.6754 11.5371 16.1136 11.5371H13.1141V6.52681C13.1141 5.98629 12.6759 5.5483 12.1354 5.5483Z" fill="white"/>
</svg>
