<svg width="25" height="24" viewBox="0 0 25 24" fill="none" xmlns="http://www.w3.org/2000/svg">
<path d="M0.67627 3.9707C0.67627 2.86621 1.57178 1.9707 2.67627 1.9707H7.75562V3.9707H2.67627V15.0356H7.75562V17.0356H2.67627C1.57178 17.0356 0.67627 16.1401 0.67627 15.0356V3.9707Z" fill="white"/>
<path d="M4.81812 20.0293H7.75562V22.0293H4.81812V20.0293Z" fill="white"/>
<path d="M17.4873 8.60645C18.1777 8.60645 18.7373 8.04688 18.7373 7.35645C18.7373 6.66602 18.1777 6.10645 17.4873 6.10645C16.7969 6.10645 16.2373 6.66602 16.2373 7.35645C16.2373 8.04688 16.7969 8.60645 17.4873 8.60645Z" fill="white"/>
<path fill-rule="evenodd" clip-rule="evenodd" d="M17.4873 18.0522C19.4204 18.0522 20.9873 16.4854 20.9873 14.5522C20.9873 12.6191 19.4204 11.0522 17.4873 11.0522C15.5542 11.0522 13.9873 12.6191 13.9873 14.5522C13.9873 16.4854 15.5542 18.0522 17.4873 18.0522ZM17.4873 16.0522C18.3157 16.0522 18.9873 15.3809 18.9873 14.5522C18.9873 13.7236 18.3157 13.0522 17.4873 13.0522C16.6589 13.0522 15.9873 13.7236 15.9873 14.5522C15.9873 15.3809 16.6589 16.0522 17.4873 16.0522Z" fill="white"/>
<path fill-rule="evenodd" clip-rule="evenodd" d="M10.4873 3.9707C10.4873 2.86621 11.3828 1.9707 12.4873 1.9707H22.4873C23.5918 1.9707 24.4873 2.86621 24.4873 3.9707V19.9707C24.4873 21.0752 23.5918 21.9707 22.4873 21.9707H12.4873C11.3828 21.9707 10.4873 21.0752 10.4873 19.9707V3.9707ZM12.4873 4.9707C12.4873 4.41846 12.9351 3.9707 13.4873 3.9707H21.4873C22.0396 3.9707 22.4873 4.41846 22.4873 4.9707V18.9707C22.4873 19.5229 22.0396 19.9707 21.4873 19.9707H13.4873C12.9351 19.9707 12.4873 19.5229 12.4873 18.9707V4.9707Z" fill="white"/>
</svg>
