<svg width="24" height="25" viewBox="0 0 24 25" fill="none" xmlns="http://www.w3.org/2000/svg">
<path d="M23.0996 10.5L23.0996 14.5C23.0996 14.5552 23.0552 14.5996 23 14.5996L21.6562 14.5996C19.9638 14.5999 19.1166 16.6469 20.3135 17.8437L21.2627 18.793C21.3017 18.832 21.3017 18.8955 21.2627 18.9346L18.4346 21.7627C18.3955 21.8017 18.332 21.8017 18.293 21.7627L17.3437 20.8135C16.1468 19.6165 14.0996 20.4645 14.0996 22.1572L14.0996 23.5C14.0996 23.5552 14.0552 23.5996 14 23.5996L10 23.5996C9.94477 23.5996 9.90039 23.5552 9.90039 23.5L9.90039 22.1562C9.90007 20.4638 7.85309 19.6166 6.65625 20.8135L5.70605 21.7637C5.66712 21.8021 5.60437 21.8021 5.56543 21.7637L2.73633 18.9346C2.69751 18.8955 2.69735 18.8319 2.73633 18.793L3.68652 17.8437C4.88345 16.6468 4.0355 14.5996 2.34277 14.5996L0.999999 14.5996C0.944771 14.5996 0.90039 14.5552 0.90039 14.5L0.90039 10.5C0.90039 10.4448 0.944772 10.4004 1 10.4004L2.34277 10.4004C4.0355 10.4004 4.88345 8.35318 3.68652 7.15625L2.73633 6.20703C2.69744 6.16805 2.69754 6.10447 2.73633 6.06543L5.56543 3.2373C5.60448 3.19825 5.66798 3.19825 5.70703 3.2373L6.65625 4.18652C7.85309 5.38336 9.90007 4.5362 9.90039 2.84375L9.90039 1.5C9.90039 1.44477 9.94477 1.40039 10 1.40039L14 1.40039C14.0552 1.40039 14.0996 1.44477 14.0996 1.5L14.0996 2.84277C14.0996 4.53549 16.1468 5.38346 17.3437 4.18652L18.293 3.2373C18.332 3.19825 18.3955 3.19825 18.4346 3.2373L21.2627 6.06543C21.3017 6.10448 21.3017 6.16798 21.2627 6.20703L20.3135 7.15625C19.1166 8.35309 19.9638 10.4001 21.6562 10.4004L23 10.4004C23.0552 10.4004 23.0996 10.4448 23.0996 10.5ZM15.9004 12.5C15.9004 10.3461 14.1539 8.59961 12 8.59961C9.84609 8.59961 8.09961 10.3461 8.09961 12.5C8.09961 14.6539 9.84609 16.4004 12 16.4004C14.1539 16.4004 15.9004 14.6539 15.9004 12.5Z" stroke="white" stroke-width="1.8"/>
</svg>
