<svg width="24" height="30" viewBox="0 0 24 30" fill="none" xmlns="http://www.w3.org/2000/svg">
<path d="M6.14597 14.7303C6.1267 14.751 6.10592 14.7737 6.08355 14.798C5.8106 15.0955 5.30165 15.6501 4.41912 16.1613C3.4701 16.7111 2.05289 17.2283 0.0146413 17.2143L0 19.3541C2.4318 19.3707 4.22219 18.7477 5.48982 18.0134C6.66017 17.3354 7.35449 16.5769 7.64978 16.2544C7.6725 16.2296 7.69353 16.2066 7.71154 16.1872C7.91931 15.9635 8.12646 15.7423 8.33619 15.5184C9.80105 13.9546 11.392 12.2562 14.192 8.61811C16.2185 5.98511 19.0037 5.38801 19.6393 5.37209H20.3507L18.6945 7.02992C18.4157 7.45862 18.4641 8.03839 18.8399 8.41458C19.1918 8.76683 19.722 8.83179 20.1397 8.60944L23.6868 5.05873C24.1042 4.6409 24.1042 3.96348 23.6868 3.54566L20.2814 0.136826C19.8616 -0.0947388 19.3233 -0.032378 18.9673 0.323909C18.5968 0.694819 18.5445 1.26366 18.8104 1.69045L20.3507 3.2323H19.6186L19.6091 3.23247C18.4431 3.25331 14.9894 4.07593 12.4986 7.31218C9.7618 10.8682 8.22723 12.5064 6.77535 14.0564L6.77345 14.0584C6.56371 14.2824 6.35567 14.5045 6.14597 14.7303Z" fill="#67D26C"/>
<path d="M6.08385 6.73607C6.10617 6.7604 6.12691 6.783 6.14616 6.80372C6.35585 7.02951 6.56389 7.25161 6.77364 7.47553L6.77509 7.47708C7.28638 8.02292 7.80836 8.58018 8.38905 9.2278L10.0025 7.82377C9.39841 7.14933 8.85957 6.57408 8.33675 6.01593C8.12702 5.79203 7.91949 5.57048 7.71173 5.34677C7.69372 5.32737 7.67337 5.30515 7.65065 5.28033C7.35536 4.95777 6.66036 4.1986 5.49001 3.52061C4.22238 2.78626 2.43198 2.16324 0.000185527 2.17992L0.0148267 4.31966C2.05307 4.30569 3.47028 4.82286 4.41931 5.37263C5.30183 5.88388 5.8109 6.43863 6.08385 6.73607Z" fill="#67D26C"/>
<path d="M12.4988 14.2218C12.3811 14.0689 12.2657 13.9195 12.1523 13.7735L13.768 12.3676C13.9062 12.5453 14.0476 12.728 14.1922 12.9159C16.2186 15.5489 19.0039 16.146 19.6395 16.1619H20.3509L18.6947 14.5041C18.4158 14.0754 18.4643 13.4956 18.8401 13.1194C19.192 12.7671 19.7222 12.7022 20.1399 12.9245L23.687 16.4753C24.1043 16.8931 24.1043 17.5705 23.687 17.9883L20.2816 21.3972C19.8618 21.6287 19.3235 21.5664 18.9675 21.2101C18.597 20.8392 18.5447 20.2703 18.8106 19.8435L20.3509 18.3017H19.6188L19.6092 18.3015C18.4433 18.2807 14.9896 17.458 12.4988 14.2218Z" fill="#67D26C"/>
<path d="M14.1377 27.8602C14.1377 29.042 13.1806 30 12.0001 30C10.8195 30 9.86246 29.042 9.86246 27.8602C9.86246 26.6784 10.8195 25.7204 12.0001 25.7204C13.1806 25.7204 14.1377 26.6784 14.1377 27.8602Z" fill="#67D26C"/>
</svg>
