<svg width="21" height="22" viewBox="0 0 21 22" fill="none" xmlns="http://www.w3.org/2000/svg">
<path d="M1.48462 0.785156C0.930908 0.785156 0.481934 1.23389 0.481934 1.78809V20.1777C0.481934 20.7319 0.930908 21.1807 1.48462 21.1807C2.03833 21.1807 2.4873 20.7319 2.4873 20.1777V1.78809C2.4873 1.23389 2.03833 0.785156 1.48462 0.785156Z" fill="white"/>
<path d="M6.52563 1.78809C6.52563 1.23389 6.97461 0.785156 7.52832 0.785156C8.08203 0.785156 8.53101 1.23389 8.53101 1.78809V20.1777C8.53101 20.7319 8.08203 21.1807 7.52832 21.1807C6.97461 21.1807 6.52563 20.7319 6.52563 20.1777V1.78809Z" fill="white"/>
<path fill-rule="evenodd" clip-rule="evenodd" d="M12.5276 2.0083C12.5276 1.14941 13.4678 0.62207 14.2009 1.06982L19.9915 4.60547C20.1528 4.7041 20.283 4.84033 20.3738 4.99902C20.467 5.1626 20.5183 5.3501 20.5183 5.54443V20.1147C20.5183 20.7222 20.0256 21.2148 19.4182 21.2148H13.6277C13.02 21.2148 12.5276 20.7222 12.5276 20.1147V2.0083ZM14.5276 3.61279V19.2148H18.5183V6.04932L14.5276 3.61279Z" fill="white"/>
</svg>
